<?xml version="1.0" standalone="no"?>
<!DOCTYPE svg PUBLIC "-//W3C//DTD SVG 20010904//EN"
 "http://www.w3.org/TR/2001/REC-SVG-20010904/DTD/svg10.dtd">
<svg version="1.0" xmlns="http://www.w3.org/2000/svg"
 width="346.000000pt" height="346.000000pt" viewBox="0 0 346.000000 346.000000"
 preserveAspectRatio="xMidYMid meet">
<metadata>
Created by potrace 1.11, written by Peter Selinger 2001-2013
</metadata>
<g transform="translate(0.000000,346.000000) scale(0.100000,-0.100000)"
fill="#000000" stroke="none">
<path d="M737 2321 c-6 -2 -19 -11 -28 -20 -13 -14 -36 -16 -135 -16 -65 1
-122 0 -126 -2 -4 -2 10 -28 32 -58 22 -30 40 -59 40 -65 0 -10 -73 -193 -105
-265 -22 -48 -155 -375 -155 -380 0 -3 59 -5 131 -5 113 0 134 2 146 18 13 15
14 15 8 -8 -7 -29 -13 -35 85 88 l64 82 52 0 c58 0 59 -1 64 -75 1 -27 3 -61
4 -75 l2 -25 124 -3 c68 -1 129 -1 135 2 8 3 7 40 -1 132 -7 71 -15 167 -18
214 -21 288 -23 298 -51 342 -13 20 -38 44 -54 54 -28 16 -29 18 -14 41 18 26
29 23 -105 26 -45 1 -88 0 -95 -2z"/>
<path d="M1234 2279 c-2 -4 -1 -9 3 -11 5 -1 27 -28 51 -59 41 -55 42 -58 33
-101 -6 -25 -13 -62 -16 -84 -2 -21 -7 -50 -10 -64 -2 -14 -7 -36 -10 -50 -2
-14 -7 -41 -10 -60 -32 -204 -26 -192 -96 -188 -32 2 -59 2 -59 -1 0 -3 21
-38 48 -78 l47 -73 283 1 c267 0 285 1 318 21 40 23 85 86 103 140 21 63 23
157 4 195 -15 32 -15 35 5 56 61 64 88 223 50 293 -37 68 -37 68 -406 69 -184
0 -335 -2 -338 -6z m506 -167 c19 -16 21 -24 15 -59 -10 -61 -30 -74 -124 -79
-44 -2 -82 0 -85 4 -4 7 2 45 20 130 4 20 10 22 78 22 56 0 79 -4 96 -18z
m-70 -305 c20 -10 26 -21 28 -54 5 -69 -34 -91 -152 -89 -50 1 -51 2 -50 31 0
17 3 44 7 60 3 17 6 38 6 48 1 14 11 17 69 17 37 0 78 -6 92 -13z"/>
<path d="M2104 2279 c-2 -4 -6 -27 -9 -50 -3 -24 -12 -75 -20 -114 -7 -38 -16
-88 -19 -110 -4 -22 -11 -67 -17 -100 -6 -33 -13 -71 -15 -85 -3 -14 -9 -52
-15 -85 -6 -33 -13 -73 -15 -90 -3 -16 -9 -52 -14 -78 -6 -26 -10 -50 -10 -52
0 -3 54 -5 119 -5 136 0 123 -10 141 105 6 39 15 90 20 115 5 25 12 61 14 80
3 19 17 98 31 175 14 77 25 141 25 143 0 1 46 2 101 2 l102 0 -7 -37 c-3 -21
-8 -49 -11 -63 -15 -83 -61 -348 -71 -410 -3 -19 -9 -52 -14 -72 l-8 -38 123
0 122 0 7 38 c3 20 8 51 11 67 3 17 12 66 20 110 8 44 17 96 20 115 3 19 16
91 28 160 l22 125 72 3 c72 3 72 3 88 -28 16 -30 16 -46 -1 -135 -13 -70 -26
-144 -29 -165 -2 -14 -13 -77 -24 -140 -12 -63 -21 -123 -21 -132 0 -16 13
-18 138 -18 l137 0 18 103 c10 56 20 116 22 132 3 17 9 53 15 80 6 28 12 66
15 85 3 19 13 79 23 132 l19 97 -39 58 c-22 32 -46 65 -54 73 -13 13 -85 15
-525 15 -281 0 -513 -3 -515 -6z"/>
<path d="M961 1392 c-19 -21 -28 -41 -27 -64 0 -18 -3 -47 -7 -65 -6 -26 -4
-31 7 -27 8 3 17 22 21 42 11 62 15 71 36 69 18 -1 20 -6 14 -32 -16 -75 -17
-85 -2 -79 7 2 14 10 15 17 3 40 16 83 25 89 23 15 29 8 23 -26 -7 -37 15 -69
30 -45 4 7 2 15 -4 17 -7 2 -9 8 -6 13 3 6 8 23 11 39 4 27 2 29 -26 25 -35
-4 -41 9 -12 25 14 7 22 7 26 0 7 -12 25 -4 25 11 0 5 -18 9 -40 9 -22 0 -40
-4 -40 -8 0 -21 -27 -43 -44 -36 -17 7 -17 8 4 24 16 12 19 19 11 24 -7 4 -23
-5 -40 -22z"/>
<path d="M212 1395 c-4 -5 -12 -35 -18 -67 l-10 -56 26 -4 c32 -5 50 0 50 13
0 5 -11 9 -24 9 -18 0 -23 4 -19 18 2 10 12 18 21 18 9 -1 18 4 19 9 1 6 -4 9
-12 7 -7 -1 -16 2 -19 7 -9 13 22 41 38 35 8 -3 17 -1 21 5 7 12 4 13 -38 15
-16 1 -31 -3 -35 -9z"/>
<path d="M1226 1401 c-3 -5 1 -11 9 -15 9 -3 15 0 15 9 0 16 -16 20 -24 6z"/>
<path d="M1950 1397 c-60 -30 -60 -120 -1 -129 32 -5 51 0 51 13 0 5 -13 9
-29 9 -32 0 -47 25 -36 58 8 26 46 43 69 30 14 -8 17 -7 14 7 -4 23 -36 28
-68 12z"/>
<path d="M2122 1401 c4 -13 18 -16 19 -4 0 4 -5 9 -11 12 -7 2 -11 -2 -8 -8z"/>
<path d="M2245 1401 c-6 -11 9 -23 19 -14 9 9 7 23 -3 23 -6 0 -12 -4 -16 -9z"/>
<path d="M2495 1383 c-4 -16 -10 -45 -14 -65 -10 -41 -6 -48 22 -48 15 0 17 3
9 13 -8 9 -7 29 2 70 11 48 11 57 0 57 -8 0 -16 -12 -19 -27z"/>
<path d="M2168 1370 c-10 -11 -13 -22 -8 -25 6 -4 7 -17 4 -31 -9 -36 1 -53
27 -47 20 6 20 7 5 18 -13 10 -14 18 -6 39 5 15 14 24 20 21 5 -3 10 1 10 10
0 9 -4 13 -10 10 -5 -3 -10 1 -10 9 0 22 -12 20 -32 -4z"/>
<path d="M301 1355 c-5 -5 -11 -27 -14 -47 -4 -29 -2 -38 9 -38 8 0 14 10 14
24 0 31 29 63 41 45 4 -7 3 -23 -2 -36 -12 -32 -12 -33 5 -33 15 0 33 76 21
88 -10 11 -66 8 -74 -3z"/>
<path d="M428 1363 c-17 -4 -30 -31 -33 -65 -2 -19 38 -40 60 -32 23 9 18 24
-6 21 -12 -1 -24 4 -26 11 -3 7 5 12 20 12 35 0 52 23 32 44 -17 16 -18 17
-47 9z m32 -22 c0 -5 -7 -11 -15 -15 -15 -5 -20 5 -8 17 9 10 23 9 23 -2z"/>
<path d="M505 1344 c-3 -13 -7 -35 -10 -49 -4 -18 -1 -25 10 -25 9 0 15 9 15
23 0 28 10 41 34 50 23 9 15 19 -19 23 -19 2 -26 -3 -30 -22z"/>
<path d="M598 1363 c-15 -4 -28 -26 -34 -61 -3 -18 24 -42 41 -36 8 4 15 1 15
-4 0 -13 -36 -26 -49 -17 -5 3 -12 1 -15 -4 -6 -9 16 -21 37 -21 21 1 48 27
53 51 18 82 17 94 -7 95 -13 1 -32 -1 -41 -3z m36 -35 c-9 -31 -24 -49 -35
-42 -15 9 -10 42 9 53 27 16 34 13 26 -11z"/>
<path d="M685 1328 c4 -24 8 -45 10 -47 8 -8 -16 -41 -30 -41 -8 0 -15 -4 -15
-10 0 -5 6 -10 13 -10 17 0 57 29 57 41 0 6 11 27 25 47 28 41 32 64 10 56 -8
-4 -15 -12 -15 -19 0 -7 -6 -18 -14 -24 -11 -9 -15 -5 -19 19 -10 48 -29 37
-22 -12z"/>
<path d="M852 1354 c-43 -30 -20 -99 29 -87 21 6 26 25 7 22 -26 -3 -39 1 -33
11 3 6 14 10 24 10 28 0 46 26 31 45 -16 19 -30 19 -58 -1z m38 -13 c0 -5 -7
-11 -15 -15 -15 -5 -20 5 -8 17 9 10 23 9 23 -2z"/>
<path d="M1144 1356 c-27 -19 -35 -50 -19 -72 16 -23 41 -26 57 -7 10 12 9 14
-3 13 -29 -4 -39 0 -39 19 0 20 22 44 36 39 5 -2 10 2 12 7 5 16 -21 17 -44 1z"/>
<path d="M1212 1328 c-9 -47 0 -70 24 -61 10 3 12 9 6 15 -5 5 -7 27 -5 49 6
53 -13 51 -25 -3z"/>
<path d="M1280 1350 c-23 -23 -26 -62 -7 -77 14 -12 45 -9 61 7 8 8 4 10 -13
8 -35 -4 -37 18 -1 25 31 7 39 24 18 45 -17 17 -35 15 -58 -8z m40 -9 c0 -5
-7 -11 -15 -15 -15 -5 -20 5 -8 17 9 10 23 9 23 -2z"/>
<path d="M1376 1359 c-21 -61 -24 -89 -10 -89 8 0 17 13 21 30 3 17 15 35 25
41 19 10 20 8 13 -30 -5 -32 -4 -41 7 -41 8 0 15 6 15 13 0 7 3 24 6 39 8 32
-15 57 -36 39 -10 -8 -17 -7 -25 1 -8 8 -13 8 -16 -3z"/>
<path d="M1490 1350 c-42 -42 -8 -110 36 -74 16 14 17 15 2 10 -11 -3 -21 2
-27 12 -13 25 10 53 40 49 18 -3 25 -13 32 -43 7 -33 5 -41 -15 -56 -25 -19
-17 -38 10 -22 24 16 93 132 82 139 -6 4 -18 -7 -28 -24 -21 -37 -32 -39 -32
-6 0 14 -3 25 -7 26 -5 0 -23 2 -41 5 -23 3 -38 -2 -52 -16z"/>
<path d="M1770 1360 c-2 -8 -2 -18 -1 -22 0 -5 -2 -7 -6 -7 -19 3 -33 -2 -33
-12 0 -5 4 -8 9 -5 11 7 33 -18 24 -27 -3 -4 -1 -7 5 -7 7 0 12 9 12 19 0 15
6 19 21 16 13 -3 19 0 16 8 -2 7 -10 12 -17 12 -7 0 -16 9 -21 20 -5 14 -8 16
-9 5z"/>
<path d="M2040 1350 c-4 -8 -11 -30 -15 -47 -5 -26 -3 -33 9 -33 10 0 16 9 16
24 0 14 11 33 25 44 14 11 25 22 25 25 0 12 -53 1 -60 -13z"/>
<path d="M2116 1361 c-13 -20 -18 -91 -7 -91 6 0 14 0 17 0 8 0 9 88 1 96 -3
3 -8 1 -11 -5z"/>
<path d="M2235 1348 c-11 -49 -10 -72 5 -75 12 -3 15 8 17 47 1 51 -12 68 -22
28z"/>
<path d="M2302 1353 c-34 -30 -37 -59 -8 -78 14 -9 30 -14 36 -10 12 7 14 26
3 24 -20 -3 -29 3 -30 20 -2 25 22 45 43 37 10 -4 14 -1 12 6 -7 20 -33 20
-56 1z"/>
<path d="M2392 1352 c-42 -35 -36 -81 11 -86 37 -4 46 5 53 55 6 42 5 45 -19
47 -14 1 -34 -6 -45 -16z m48 -6 c0 -20 -22 -56 -35 -56 -21 0 -19 37 3 49 18
11 32 14 32 7z"/>
<path d="M2601 1350 c-5 -8 -11 -33 -15 -55 -4 -22 -9 -48 -12 -57 -3 -12 0
-18 10 -18 8 0 16 10 18 22 2 13 12 22 27 25 14 2 30 8 38 14 14 12 18 78 6
80 -38 7 -66 3 -72 -11z m53 -33 c-7 -22 -22 -37 -37 -37 -12 0 1 52 15 61 19
12 30 0 22 -24z"/>
<path d="M2714 1345 c-19 -19 -23 -31 -18 -48 8 -27 6 -25 24 -27 35 -5 51 1
62 25 6 14 15 25 20 25 4 0 8 -11 8 -25 0 -34 25 -32 44 3 13 23 15 24 17 7 1
-11 1 -23 0 -27 -2 -13 26 -9 38 5 18 23 42 87 31 87 -5 0 -17 -15 -27 -32
l-18 -33 -3 32 c-4 38 -27 35 -44 -6 l-11 -26 -6 29 c-3 17 -10 29 -16 27 -5
-1 -9 -9 -7 -17 4 -21 -11 -17 -26 6 -16 27 -38 25 -68 -5z m50 -10 c8 -23 -4
-45 -25 -45 -22 0 -26 29 -7 48 16 16 25 15 32 -3z"/>
<path d="M2970 1350 c-38 -38 -16 -95 31 -83 21 6 26 25 7 22 -48 -6 -46 15 2
24 31 7 39 24 18 45 -17 17 -35 15 -58 -8z m40 -9 c0 -5 -7 -11 -15 -15 -15
-5 -20 5 -8 17 9 10 23 9 23 -2z"/>
<path d="M3060 1345 c-19 -52 -20 -75 -5 -75 8 0 15 9 15 20 0 12 11 31 25 44
32 29 31 34 -1 32 -16 0 -29 -9 -34 -21z"/>
</g>
</svg>
